:SAMPLES-PER-SECOND 30
:FULLY-SPECIFIED
:DEGREES
69
root  10.61344522 40.15333221 -10.60815571 -4.944039822 -49.78440094 5.844629765
lfemur  -23.10750389 -5.984479904 -6.06970787
ltibia  -1.491570742e-006 -8.364404493e-007 45.43960953
lfoot  5.521815751e-007 -5.109262943 -1.978410363
ltoes  -4.250644065 -19.5611806 -102.515957
rfemur  -16.22800446 13.00529957 3.182959557
rtibia  -8.727266732e-007 2.533748784e-007 51.87880325
rfoot  -2.316020982e-006 -15.16800213 7.301228523
rtoes  5.373923086 19.29304026 -105.8922705
lowerback  9.007940292 1.746060014 -1.436210036
upperback  3.757810116 2.124010086 -0.6263719797
thorax  -1.182850003 1.026219964 -0.04827519879
rclavicle  0 -9.442270133e-015 7.951389973e-016
rhumerus  17.98500252 10.87600136 -73.97499847
rradius  -7.782816058e-012 0.001642658608 143.9029999
rwrist  0.002739921212 0.003270594636 -24.19070053
rthumb  -92.93752616 -24.25625642 -97.11982154
rhand  -7.920061211e-032 -33.2840004 9.303460121
rfingers  -90 -7.125020027 -90
lclavicle  0 -9.442270133e-015 7.951389973e-016
lhumerus  19.01719856 -5.718540668 64.83390045
lradius  1.032090038e-011 -0.002758552087 138.6360016
lwrist  1.816137865e-011 1.409039812e-011 13.49790001
lthumb  89.89689403 5.08795885 91.16245106
lhand  -1.496451383e-031 -27.76390076 20.11240005
lfingers  90 7.125020027 -90
lowerneck  1.66249001 6.619140148 -6.0865798
upperneck  14.27490139 8.017230034 7.636670113
head  3.397320032 3.927030087 3.476860046
70
root  10.59126666 40.16022269 -10.72035587 -4.844180107 -49.91139984 5.757150173
lfemur  -23.020504 -5.546110153 -6.29145813
ltibia  -1.491570742e-006 -8.364404493e-007 46.68570709
lfoot  5.521815751e-007 -5.212483883 -2.322920561
ltoes  -4.250644065 -19.5611806 -102.515957
rfemur  -15.83060169 13.71800041 3.348570108
rtibia  -8.727266732e-007 2.533748784e-007 51.41050339
rfoot  -2.316020982e-006 -16.44840431 5.558339596
rtoes  5.373923086 19.29304026 -105.8922705
lowerback  8.89910984 1.709210038 -1.570809841
upperback  3.6954 2.068470001 -0.5681340098
thorax  -1.193779945 0.9980350137 0.09473930299
rclavicle  0 -9.442270133e-015 7.951389973e-016
rhumerus  18.48849869 10.7329998 -73.54940033
rradius  -7.782816926e-012 0.001642658608 144.0099945
rwrist  0.002739921212 0.003270594636 -24.38870049
rthumb  -92.93752616 -24.25625642 -97.11982154
rhand  -7.920061211e-032 -33.2840004 9.303460121
rfingers  -90 -7.125020027 -90
lclavicle  0 -9.442270133e-015 7.951389973e-016
lhumerus  18.8633976 -5.504570484 64.92269897
lradius  1.032090038e-011 -0.002694160212 138.677002
lwrist  1.816137865e-011 1.409039812e-011 13.46399975
lthumb  89.89689403 5.08795885 91.16245106
lhand  -1.496451383e-031 -27.76390076 20.11240005
lfingers  90 7.125020027 -90
lowerneck  1.616109967 6.705339909 -6.183229923
upperneck  15.0094986 8.106069565 7.580870152
head  3.618829966 3.955699921 3.500750065
71
root  10.57168855 40.13555632 -10.83024468 -4.431580067 -49.84429932 5.292930126
lfemur  -23.09959793 -5.227159977 -6.283510685
ltibia  -1.491570742e-006 -8.364404493e-007 48.1928978
lfoot  5.521815751e-007 -5.237379074 -2.550610065
ltoes  -4.250644065 -19.5611806 -102.515957
rfemur  -15.35189724 14.30840111 3.860626936
rtibia  -8.727266732e-007 2.533748784e-007 51.13559341
rfoot  -2.316020982e-006 -17.832798 1.934789419
rtoes  5.373923086 19.29304026 -105.8922705
lowerback  8.776789665 1.612159967 -1.394799948
upperback  3.589370012 1.960319996 -0.4813539982
thorax  -1.231979966 0.9468299747 0.09786549956
rclavicle  0 -9.442270133e-015 7.951389973e-016
rhumerus  18.84420013 10.46430111 -73.28469849
rradius  -7.782816058e-012 0.001642658608 144.1289978
rwrist  0.002739921212 0.003270594636 -24.54719925
rthumb  -92.93752616 -24.25625642 -97.11982154
rhand  -7.920061211e-032 -33.2840004 9.303460121
rfingers  -90 -7.125020027 -90
lclavicle  0 -9.442270133e-015 7.951389973e-016
lhumerus  18.66080284 -5.426620007 65.04319763
lradius  1.032090038e-011 -0.002629820956 138.7649994
lwrist  1.816137865e-011 1.409039812e-011 13.35529995
lthumb  89.89689403 5.08795885 91.16245106
lhand  -1.496451383e-031 -27.76390076 20.11240005
lfingers  90 7.125020027 -90
lowerneck  1.669929981 6.740670204 -6.312610149
upperneck  15.64680099 8.114048958 7.626870155
head  3.793889999 3.945440054 3.55366993
72
root  10.55368889 40.09533379 -10.93511131 -3.798419952 -49.7181015 4.617740154
lfemur  -23.31979942 -4.88173008 -6.136370182
ltibia  -1.491570742e-006 -8.364404493e-007 49.8669014
lfoot  5.521815751e-007 -5.179668903 -2.796469688
ltoes  -4.250644065 -19.5611806 -102.515957
rfemur  -14.959198 14.68780041 4.534819126
rtibia  -8.727266732e-007 2.533748784e-007 51.04739761
rfoot  -2.316020982e-006 -18.73320007 -2.57991004
rtoes  5.373923086 19.29304026 -105.8922705
lowerback  8.585140228 1.541890025 -0.9852810502
upperback  3.512379885 1.906030059 -0.4544799924
thorax  -1.193269968 0.9239500165 -0.09453859925
rclavicle  0 -9.442270133e-015 7.951389973e-016
rhumerus  19.18300056 10.05350018 -73.09580231
rradius  -7.782816926e-012 0.001642658608 144.2350006
rwrist  0.002739921212 0.003270594636 -24.52000046
rthumb  -92.93752616 -24.25625642 -97.11982154
rhand  -7.920061211e-032 -33.2840004 9.303460121
rfingers  -90 -7.125020027 -90
lclavicle  0 -9.442270133e-015 7.951389973e-016
lhumerus  18.69109917 -5.547860622 65.02480316
lradius  1.032090125e-011 -0.002565494739 138.8000031
lwrist  1.816137865e-011 1.409039812e-011 13.15330029
lthumb  89.89689403 5.08795885 91.16245106
lhand  -1.496451383e-031 -27.76390076 20.11240005
lfingers  90 7.125020027 -90
lowerneck  1.476959944 6.688189983 -6.210040092
upperneck  16.34469986 8.010739326 7.677770138
head  4.04527998 3.89718008 3.582350016
73
root  10.51973358 40.02622169 -11.03908884 -3.411250114 -49.71039963 4.179580212
lfemur  -23.41329575 -4.474129677 -6.143451214
ltibia  -1.491570742e-006 -8.364404493e-007 51.59599304
lfoot  5.521815751e-007 -5.138175964 -2.952219725
ltoes  -4.250644065 -19.5611806 -102.515957
rfemur  -14.62859631 15.01620007 5.091478825
rtibia  -8.727266732e-007 2.533748784e-007 51.14049149
rfoot  -2.316020982e-006 -18.94469643 -7.119109154
rtoes  5.373923086 19.29304026 -105.8922705
lowerback  8.346770287 1.50030005 -0.7782710195
upperback  3.453949928 1.871989965 -0.4679360092
thorax  -1.115120053 0.9095500112 -0.2155440003
rclavicle  0 -9.442270133e-015 7.951389973e-016
rhumerus  19.38969803 9.749290466 -72.95020294
rradius  -7.782816926e-012 0.001642658608 144.3309937
rwrist  0.002739921212 0.003270594636 -24.47369957
rthumb  -92.93752616 -24.25625642 -97.11982154
rhand  -7.920061211e-032 -33.2840004 9.303460121
rfingers  -90 -7.125020027 -90
lclavicle  0 -9.442270133e-015 7.951389973e-016
lhumerus  18.67059898 -5.520230293 64.91570282
lradius  1.032090038e-011 -0.002501142211 138.8439941
lwrist  1.816137865e-011 1.409039812e-011 12.97850037
lthumb  89.89689403 5.08795885 91.16245106
lhand  -1.496451383e-031 -27.76390076 20.11240005
lfingers  90 7.125020027 -90
lowerneck  1.234789968 6.66590023 -6.103680134
upperneck  17.09359932 7.948369503 7.721099854
head  4.319149971 3.869309902 3.612390041
74
root  10.47795589 39.92600028 -11.14817792 -3.106809855 -49.73419952 3.839659929
lfemur  -23.45549202 -3.930839777 -6.231674194
ltibia  -1.491570742e-006 -8.364404493e-007 53.29628372
lfoot  5.521815751e-007 -5.116133213 -3.051829338
ltoes  -4.250644065 -19.5611806 -102.515957
rfemur  -14.35379219 15.49240017 5.561038494
rtibia  -8.727266732e-007 2.533748784e-007 51.37808609
rfoot  -2.316020982e-006 -18.56199265 -8.743608475
rtoes  5.373923086 19.29304026 -105.8922705
lowerback  8.126480103 1.462290049 -0.7052099109
upperback  3.322979927 1.832360029 -0.4659479856
thorax  -1.126549959 0.8919439912 -0.2469989955
rclavicle  0 -9.442270133e-015 7.951389973e-016
rhumerus  19.50650024 9.657050133 -72.86129761
rradius  -7.782816926e-012 0.001642658608 144.3959961
rwrist  0.002739921212 0.003270594636 -24.20439911
rthumb  -92.93752616 -24.25625642 -97.11982154
rhand  -7.920061211e-032 -33.2840004 9.303460121
rfingers  -90 -7.125020027 -90
lclavicle  0 -9.442270133e-015 7.951389973e-016
lhumerus  18.45569992 -5.446279526 64.84290314
lradius  1.032089952e-011 -0.002436724259 138.9190063
lwrist  1.816137865e-011 1.409039812e-011 12.87020016
lthumb  89.89689403 5.08795885 91.16245106
lhand  -1.496451383e-031 -27.76390076 20.11240005
lfingers  90 7.125020027 -90
lowerneck  1.073809981 6.661960125 -6.126450062
upperneck  17.90880013 7.88973093 7.874259949
head  4.589660168 3.839109898 3.696310043
75
root  10.4381336 39.79311064 -11.26060035 -2.920160055 -49.7397995 3.593050003
lfemur  -23.41529846 -3.316529751 -6.398842335
ltibia  -1.491570742e-006 -8.364404493e-007 54.91519547
lfoot  5.521815751e-007 -5.289306641 -3.191179752
ltoes  -4.250644065 -19.5611806 -102.515957
rfemur  -13.98789787 16.25169945 5.863159657
rtibia  -8.727266732e-007 2.533748784e-007 51.7048912
rfoot  -2.316020982e-006 -18.42949677 -8.92429924
rtoes  5.373923086 19.29304026 -105.8922705
lowerback  7.9801898 1.453259945 -0.7076179981
upperback  3.195689917 1.823879957 -0.4683159888
thorax  -1.177109957 0.8891630173 -0.245480001
rclavicle  0 -9.442270133e-015 7.951389973e-016
rhumerus  19.78829765 9.541879654 -72.84609985
rradius  -7.782816926e-012 0.001642658608 144.4859924
rwrist  0.002739921212 0.003270594636 -23.46910095
rthumb  -92.93752616 -24.25625642 -97.11982154
rhand  -7.920061211e-032 -33.2840004 9.303460121
rfingers  -90 -7.125020027 -90
lclavicle  0 -9.442270133e-015 7.951389973e-016
lhumerus  18.22520256 -5.558589458 64.83840179
lradius  1.032090038e-011 -0.002372201532 139.0749969
lwrist  1.816137865e-011 1.409039812e-011 12.76949978
lthumb  89.89689403 5.08795885 91.16245106
lhand  -1.496451383e-031 -27.76390076 20.11240005
lfingers  90 7.125020027 -90
lowerneck  0.7715600133 6.569369793 -6.084549904
upperneck  18.8477993 7.718169689 7.968589306
head  4.937160015 3.755539894 3.760839939
76
root  10.3922889 39.63022307 -11.37566679 -2.936879873 -49.67340088 3.539519787
lfemur  -23.2988987 -2.826980114 -6.651120663
ltibia  -1.491570742e-006 -8.364404493e-007 56.41099548
lfoot  5.521815751e-007 -5.850218773 -3.44408989
ltoes  -4.250644065 -19.5611806 -102.515957
rfemur  -13.51639748 16.92429924 6.050179482
rtibia  -8.727266732e-007 2.533748784e-007 52.04449463
rfoot  -2.316020982e-006 -18.01209831 -8.518580437
rtoes  5.373923086 19.29304026 -105.8922705
lowerback  7.841060162 1.423920035 -0.8438509703
upperback  3.111449957 1.77718997 -0.5108759999
thorax  -1.189829946 0.8662310243 -0.2064809948
rclavicle  0 -9.442270133e-015 7.951389973e-016
rhumerus  20.05880165 9.294960976 -72.87290192
rradius  -7.782816926e-012 0.001642658608 144.5919952
rwrist  0.002739921212 0.003270594636 -22.66270065
rthumb  -92.93752616 -24.25625642 -97.11982154
rhand  -7.920061211e-032 -33.2840004 9.303460121
rfingers  -90 -7.125020027 -90
lclavicle  0 -9.442270133e-015 7.951389973e-016
lhumerus  17.96299744 -5.687829971 64.82460022
lradius  1.032090038e-011 -0.002307534683 139.2250061
lwrist  1.816137865e-011 1.409039812e-011 12.58300018
lthumb  89.89689403 5.08795885 91.16245106
lhand  -1.496451383e-031 -27.76390076 20.11240005
lfingers  90 7.125020027 -90
lowerneck  0.4012469947 6.494840145 -6.060800076
upperneck  19.75889969 7.575309753 8.070199966
head  5.28704977 3.687129974 3.833319902
